<svg width="86" height="70" viewBox="0 0 86 70" fill="none" xmlns="http://www.w3.org/2000/svg">
<ellipse cx="36" cy="35" rx="36" ry="35" fill="#64FF57"/>
<path d="M23.988 36.66C24.076 36.66 24.152 36.692 24.216 36.756C24.28 36.82 24.312 36.896 24.312 36.984V38.676C24.312 38.764 24.28 38.84 24.216 38.904C24.152 38.968 24.076 39 23.988 39H16.404C16.316 39 16.24 38.968 16.176 38.904C16.112 38.84 16.08 38.764 16.08 38.676V30.924C16.08 30.836 16.112 30.76 16.176 30.696C16.24 30.632 16.316 30.6 16.404 30.6H23.868C23.956 30.6 24.032 30.632 24.096 30.696C24.16 30.76 24.192 30.836 24.192 30.924V32.616C24.192 32.704 24.16 32.78 24.096 32.844C24.032 32.908 23.956 32.94 23.868 32.94H19.2V33.696H23.208C23.296 33.696 23.372 33.728 23.436 33.792C23.5 33.856 23.532 33.932 23.532 34.02V35.58C23.532 35.668 23.5 35.744 23.436 35.808C23.372 35.872 23.296 35.904 23.208 35.904H19.2V36.66H23.988ZM30.2593 30.6C31.6113 30.6 32.6913 30.892 33.4993 31.476C34.3153 32.06 34.7233 32.964 34.7233 34.188V35.412C34.7233 36.66 34.3193 37.572 33.5113 38.148C32.7113 38.716 31.6273 39 30.2593 39H26.4313C26.3433 39 26.2673 38.968 26.2033 38.904C26.1393 38.84 26.1073 38.764 26.1073 38.676V30.924C26.1073 30.836 26.1393 30.76 26.2033 30.696C26.2673 30.632 26.3433 30.6 26.4313 30.6H30.2593ZM30.3193 36.66C30.6953 36.66 30.9913 36.572 31.2073 36.396C31.4313 36.212 31.5433 35.956 31.5433 35.628V33.972C31.5433 33.644 31.4313 33.392 31.2073 33.216C30.9913 33.032 30.6953 32.94 30.3193 32.94H29.2273V36.66H30.3193ZM40.4906 39.12C39.1466 39.12 38.0786 38.828 37.2866 38.244C36.5026 37.66 36.1106 36.748 36.1106 35.508V30.924C36.1106 30.836 36.1426 30.76 36.2066 30.696C36.2706 30.632 36.3466 30.6 36.4346 30.6H38.9426C39.0306 30.6 39.1066 30.632 39.1706 30.696C39.2346 30.76 39.2666 30.836 39.2666 30.924V35.7C39.2666 36.028 39.3746 36.28 39.5906 36.456C39.8146 36.632 40.1146 36.72 40.4906 36.72C40.8666 36.72 41.1626 36.632 41.3786 36.456C41.6026 36.28 41.7146 36.028 41.7146 35.7V30.924C41.7146 30.836 41.7466 30.76 41.8106 30.696C41.8746 30.632 41.9506 30.6 42.0386 30.6H44.5466C44.6346 30.6 44.7106 30.632 44.7746 30.696C44.8386 30.76 44.8706 30.836 44.8706 30.924V35.508C44.8706 36.748 44.4746 37.66 43.6826 38.244C42.8986 38.828 41.8346 39.12 40.4906 39.12ZM49.5819 35.76C49.5819 36.088 49.6899 36.34 49.9059 36.516C50.1299 36.692 50.4299 36.78 50.8059 36.78C51.1419 36.78 51.3899 36.724 51.5499 36.612C51.7099 36.5 51.8459 36.332 51.9579 36.108C52.0619 35.9 52.2019 35.796 52.3779 35.796H54.9699C55.0419 35.796 55.1019 35.824 55.1499 35.88C55.2059 35.928 55.2339 35.988 55.2339 36.06C55.2339 36.548 55.0699 37.028 54.7419 37.5C54.4139 37.964 53.9139 38.352 53.2419 38.664C52.5779 38.968 51.7659 39.12 50.8059 39.12C49.9499 39.12 49.1859 38.992 48.5139 38.736C47.8499 38.472 47.3219 38.072 46.9299 37.536C46.5379 36.992 46.3419 36.316 46.3419 35.508V34.092C46.3419 33.284 46.5379 32.612 46.9299 32.076C47.3219 31.532 47.8499 31.132 48.5139 30.876C49.1859 30.612 49.9499 30.48 50.8059 30.48C51.7659 30.48 52.5779 30.636 53.2419 30.948C53.9139 31.252 54.4139 31.64 54.7419 32.112C55.0699 32.576 55.2339 33.052 55.2339 33.54C55.2339 33.612 55.2059 33.676 55.1499 33.732C55.1019 33.78 55.0419 33.804 54.9699 33.804H52.3779C52.2019 33.804 52.0619 33.7 51.9579 33.492C51.8459 33.268 51.7099 33.1 51.5499 32.988C51.3899 32.876 51.1419 32.82 50.8059 32.82C50.4299 32.82 50.1299 32.908 49.9059 33.084C49.6899 33.26 49.5819 33.512 49.5819 33.84V35.76ZM59.1533 38.592C59.0493 38.864 58.8693 39 58.6133 39H56.3453C56.2733 39 56.2093 38.976 56.1533 38.928C56.1053 38.872 56.0813 38.808 56.0813 38.736L56.0933 38.664L58.7093 30.996C58.7413 30.892 58.8013 30.8 58.8893 30.72C58.9773 30.64 59.0973 30.6 59.2493 30.6H62.5853C62.7373 30.6 62.8573 30.64 62.9453 30.72C63.0333 30.8 63.0933 30.892 63.1253 30.996L65.7413 38.664L65.7533 38.736C65.7533 38.808 65.7253 38.872 65.6693 38.928C65.6213 38.976 65.5613 39 65.4893 39H63.2213C62.9653 39 62.7853 38.864 62.6813 38.592L62.3813 37.752H59.4533L59.1533 38.592ZM60.9173 32.916L60.0653 35.412H61.7693L60.9173 32.916ZM74.9886 36.54C75.0766 36.54 75.1526 36.572 75.2166 36.636C75.2806 36.7 75.3126 36.776 75.3126 36.864V38.676C75.3126 38.764 75.2806 38.84 75.2166 38.904C75.1526 38.968 75.0766 39 74.9886 39H67.9806C67.8926 39 67.8166 38.968 67.7526 38.904C67.6886 38.84 67.6566 38.764 67.6566 38.676V30.924C67.6566 30.836 67.6886 30.76 67.7526 30.696C67.8166 30.632 67.8926 30.6 67.9806 30.6H70.5726C70.6606 30.6 70.7366 30.632 70.8006 30.696C70.8646 30.76 70.8966 30.836 70.8966 30.924V36.54H74.9886ZM82.9039 36.54H85.0759C85.1639 36.54 85.2399 36.572 85.3039 36.636C85.3679 36.7 85.3999 36.776 85.3999 36.864V38.676C85.3999 38.764 85.3679 38.84 85.3039 38.904C85.2399 38.968 85.1639 39 85.0759 39H77.4679C77.3799 39 77.3039 38.968 77.2399 38.904C77.1759 38.84 77.1439 38.764 77.1439 38.676V36.864C77.1439 36.776 77.1759 36.7 77.2399 36.636C77.3039 36.572 77.3799 36.54 77.4679 36.54H79.6639V33.06H77.4679C77.3799 33.06 77.3039 33.028 77.2399 32.964C77.1759 32.9 77.1439 32.824 77.1439 32.736V30.924C77.1439 30.836 77.1759 30.76 77.2399 30.696C77.3039 30.632 77.3799 30.6 77.4679 30.6H85.0759C85.1639 30.6 85.2399 30.632 85.3039 30.696C85.3679 30.76 85.3999 30.836 85.3999 30.924V32.736C85.3999 32.824 85.3679 32.9 85.3039 32.964C85.2399 33.028 85.1639 33.06 85.0759 33.06H82.9039V36.54Z" fill="white"/>
</svg>
